%TF.GenerationSoftware,KiCad,Pcbnew,6.0.2+dfsg-1*%
%TF.CreationDate,2024-04-13T18:10:58-05:00*%
%TF.ProjectId,Mailbox,4d61696c-626f-4782-9e6b-696361645f70,rev?*%
%TF.SameCoordinates,Original*%
%TF.FileFunction,Soldermask,Top*%
%TF.FilePolarity,Negative*%
%FSLAX46Y46*%
G04 Gerber Fmt 4.6, Leading zero omitted, Abs format (unit mm)*
G04 Created by KiCad (PCBNEW 6.0.2+dfsg-1) date 2024-04-13 18:10:58*
%MOMM*%
%LPD*%
G01*
G04 APERTURE LIST*
G04 Aperture macros list*
%AMRoundRect*
0 Rectangle with rounded corners*
0 $1 Rounding radius*
0 $2 $3 $4 $5 $6 $7 $8 $9 X,Y pos of 4 corners*
0 Add a 4 corners polygon primitive as box body*
4,1,4,$2,$3,$4,$5,$6,$7,$8,$9,$2,$3,0*
0 Add four circle primitives for the rounded corners*
1,1,$1+$1,$2,$3*
1,1,$1+$1,$4,$5*
1,1,$1+$1,$6,$7*
1,1,$1+$1,$8,$9*
0 Add four rect primitives between the rounded corners*
20,1,$1+$1,$2,$3,$4,$5,0*
20,1,$1+$1,$4,$5,$6,$7,0*
20,1,$1+$1,$6,$7,$8,$9,0*
20,1,$1+$1,$8,$9,$2,$3,0*%
G04 Aperture macros list end*
%ADD10C,8.100000*%
%ADD11RoundRect,0.050000X-0.700000X-0.700000X0.700000X-0.700000X0.700000X0.700000X-0.700000X0.700000X0*%
%ADD12C,1.500000*%
%ADD13O,1.800000X1.800000*%
%ADD14RoundRect,0.050000X-0.850000X-0.850000X0.850000X-0.850000X0.850000X0.850000X-0.850000X0.850000X0*%
%ADD15RoundRect,0.050000X-0.850000X0.850000X-0.850000X-0.850000X0.850000X-0.850000X0.850000X0.850000X0*%
%ADD16RoundRect,0.050000X0.850000X-0.850000X0.850000X0.850000X-0.850000X0.850000X-0.850000X-0.850000X0*%
G04 APERTURE END LIST*
D10*
%TO.C,H2*%
X98000000Y-48000000D03*
%TD*%
D11*
%TO.C,White_Green_Relay1*%
X127000000Y-53000000D03*
D12*
X127000000Y-60620000D03*
X127000000Y-65700000D03*
X127000000Y-70780000D03*
X134620000Y-70780000D03*
X134620000Y-65700000D03*
X134620000Y-60620000D03*
X134620000Y-53000000D03*
%TD*%
D10*
%TO.C,H1*%
X98000000Y-98800000D03*
%TD*%
%TO.C,H4*%
X142000000Y-98800000D03*
%TD*%
D13*
%TO.C,J1*%
X99787700Y-125950000D03*
D14*
X102327700Y-125950000D03*
D13*
X99787700Y-128490000D03*
X102327700Y-128490000D03*
X99787700Y-131030000D03*
X102327700Y-131030000D03*
X99787700Y-133570000D03*
X102327700Y-133570000D03*
X99787700Y-136110000D03*
X102327700Y-136110000D03*
%TD*%
D15*
%TO.C,J7*%
X146500000Y-136500000D03*
D13*
X143960000Y-136500000D03*
X141420000Y-136500000D03*
X138880000Y-136500000D03*
X136340000Y-136500000D03*
%TD*%
D11*
%TO.C,Red_Relay1*%
X106000000Y-83000000D03*
D12*
X106000000Y-90620000D03*
X106000000Y-95700000D03*
X106000000Y-100780000D03*
X113620000Y-100780000D03*
X113620000Y-95700000D03*
X113620000Y-90620000D03*
X113620000Y-83000000D03*
%TD*%
D11*
%TO.C,Control_Relay1*%
X106000000Y-53000000D03*
D12*
X106000000Y-60620000D03*
X106000000Y-65700000D03*
X106000000Y-70780000D03*
X113620000Y-70780000D03*
X113620000Y-65700000D03*
X113620000Y-60620000D03*
X113620000Y-53000000D03*
%TD*%
D10*
%TO.C,H3*%
X142000000Y-48000000D03*
%TD*%
D11*
%TO.C,Blue_Relay1*%
X127000000Y-83000000D03*
D12*
X127000000Y-90620000D03*
X127000000Y-95700000D03*
X127000000Y-100780000D03*
X134620000Y-100780000D03*
X134620000Y-95700000D03*
X134620000Y-90620000D03*
X134620000Y-83000000D03*
%TD*%
D16*
%TO.C,J6*%
X109350000Y-136500000D03*
D13*
X111890000Y-136500000D03*
X114430000Y-136500000D03*
X116970000Y-136500000D03*
X119510000Y-136500000D03*
X122050000Y-136500000D03*
X124590000Y-136500000D03*
X127130000Y-136500000D03*
X129670000Y-136500000D03*
%TD*%
M02*
